STARTFONT 2.1
FONT tekfont3
COMMENT -misc-tektronix-medium-r-normal--13-130-75-75-m-80-iso8859-1
SIZE 13 75 75
FONTBOUNDINGBOX 8 12 0 -3
STARTPROPERTIES 9
FONT_ASCENT 9
FONT_DESCENT 3
DEFAULT_CHAR 32
CAP_HEIGHT 9
X_HEIGHT 6
PIXEL_SIZE 13
POINT_SIZE 130
FOUNDRY_NAME "misc"
FAMILY_NAME "tektronix"
ENDPROPERTIES
CHARS 96
STARTCHAR <unknown>
ENCODING 32
SWIDTH 42 0
DWIDTH 8 0
BBX 0 0 0 0
BITMAP
ENDCHAR
STARTCHAR <unknown>
ENCODING 33
SWIDTH 42 0
DWIDTH 8 0
BBX 1 10 2 -1
BITMAP
80
80
80
80
80
80
80
00
00
80
ENDCHAR
STARTCHAR <unknown>
ENCODING 34
SWIDTH 42 0
DWIDTH 8 0
BBX 3 4 1 5
BITMAP
A0
A0
A0
A0
ENDCHAR
STARTCHAR <unknown>
ENCODING 35
SWIDTH 42 0
DWIDTH 8 0
BBX 5 9 0 0
BITMAP
50
50
F8
50
50
50
F8
50
50
ENDCHAR
STARTCHAR <unknown>
ENCODING 36
SWIDTH 42 0
DWIDTH 8 0
BBX 5 9 0 0
BITMAP
20
70
A8
A0
70
28
A8
70
20
ENDCHAR
STARTCHAR <unknown>
ENCODING 37
SWIDTH 42 0
DWIDTH 8 0
BBX 5 9 0 0
BITMAP
40
A0
A8
50
20
50
A8
28
10
ENDCHAR
STARTCHAR <unknown>
ENCODING 38
SWIDTH 42 0
DWIDTH 8 0
BBX 5 9 0 0
BITMAP
40
A0
A0
40
40
A8
90
90
68
ENDCHAR
STARTCHAR <unknown>
ENCODING 39
SWIDTH 42 0
DWIDTH 8 0
BBX 3 4 1 5
BITMAP
20
20
40
80
ENDCHAR
STARTCHAR <unknown>
ENCODING 40
SWIDTH 42 0
DWIDTH 8 0
BBX 3 9 1 0
BITMAP
20
40
80
80
80
80
80
40
20
ENDCHAR
STARTCHAR <unknown>
ENCODING 41
SWIDTH 42 0
DWIDTH 8 0
BBX 3 9 1 0
BITMAP
80
40
20
20
20
20
20
40
80
ENDCHAR
STARTCHAR <unknown>
ENCODING 42
SWIDTH 42 0
DWIDTH 8 0
BBX 5 9 0 0
BITMAP
20
20
A8
70
20
70
A8
20
20
ENDCHAR
STARTCHAR <unknown>
ENCODING 43
SWIDTH 42 0
DWIDTH 8 0
BBX 5 7 0 1
BITMAP
20
20
20
F8
20
20
20
ENDCHAR
STARTCHAR <unknown>
ENCODING 44
SWIDTH 42 0
DWIDTH 8 0
BBX 4 4 0 -1
BITMAP
20
70
20
C0
ENDCHAR
STARTCHAR <unknown>
ENCODING 45
SWIDTH 42 0
DWIDTH 8 0
BBX 5 1 0 4
BITMAP
F8
ENDCHAR
STARTCHAR <unknown>
ENCODING 46
SWIDTH 42 0
DWIDTH 8 0
BBX 3 3 1 0
BITMAP
40
E0
40
ENDCHAR
STARTCHAR <unknown>
ENCODING 47
SWIDTH 42 0
DWIDTH 8 0
BBX 5 7 0 1
BITMAP
08
10
10
20
40
40
80
ENDCHAR
STARTCHAR <unknown>
ENCODING 48
SWIDTH 42 0
DWIDTH 8 0
BBX 5 9 0 0
BITMAP
20
50
88
98
A8
C8
88
50
20
ENDCHAR
STARTCHAR <unknown>
ENCODING 49
SWIDTH 42 0
DWIDTH 8 0
BBX 5 9 0 0
BITMAP
20
60
A0
20
20
20
20
20
F8
ENDCHAR
STARTCHAR <unknown>
ENCODING 50
SWIDTH 42 0
DWIDTH 8 0
BBX 5 9 0 0
BITMAP
70
88
08
08
70
80
80
88
F8
ENDCHAR
STARTCHAR <unknown>
ENCODING 51
SWIDTH 42 0
DWIDTH 8 0
BBX 5 9 0 0
BITMAP
70
88
08
08
30
08
08
88
70
ENDCHAR
STARTCHAR <unknown>
ENCODING 52
SWIDTH 42 0
DWIDTH 8 0
BBX 5 9 0 0
BITMAP
10
10
30
50
50
F8
10
10
10
ENDCHAR
STARTCHAR <unknown>
ENCODING 53
SWIDTH 42 0
DWIDTH 8 0
BBX 5 9 0 0
BITMAP
F8
80
80
80
F0
08
08
90
60
ENDCHAR
STARTCHAR <unknown>
ENCODING 54
SWIDTH 42 0
DWIDTH 8 0
BBX 5 9 0 0
BITMAP
30
48
80
80
B0
C8
88
88
70
ENDCHAR
STARTCHAR <unknown>
ENCODING 55
SWIDTH 42 0
DWIDTH 8 0
BBX 5 9 0 0
BITMAP
F8
88
08
10
20
20
20
20
20
ENDCHAR
STARTCHAR <unknown>
ENCODING 56
SWIDTH 42 0
DWIDTH 8 0
BBX 5 9 0 0
BITMAP
70
88
88
50
20
50
88
88
70
ENDCHAR
STARTCHAR <unknown>
ENCODING 57
SWIDTH 42 0
DWIDTH 8 0
BBX 5 9 0 0
BITMAP
70
88
88
88
88
78
08
90
60
ENDCHAR
STARTCHAR <unknown>
ENCODING 58
SWIDTH 42 0
DWIDTH 8 0
BBX 3 7 1 1
BITMAP
40
E0
40
00
40
E0
40
ENDCHAR
STARTCHAR <unknown>
ENCODING 59
SWIDTH 42 0
DWIDTH 8 0
BBX 4 8 0 -2
BITMAP
20
70
20
00
20
70
20
C0
ENDCHAR
STARTCHAR <unknown>
ENCODING 60
SWIDTH 42 0
DWIDTH 8 0
BBX 5 9 0 0
BITMAP
08
10
20
40
80
40
20
10
08
ENDCHAR
STARTCHAR <unknown>
ENCODING 61
SWIDTH 42 0
DWIDTH 8 0
BBX 5 3 0 3
BITMAP
F8
00
F8
ENDCHAR
STARTCHAR <unknown>
ENCODING 62
SWIDTH 42 0
DWIDTH 8 0
BBX 5 9 0 0
BITMAP
80
40
20
10
08
10
20
40
80
ENDCHAR
STARTCHAR <unknown>
ENCODING 63
SWIDTH 42 0
DWIDTH 8 0
BBX 5 10 0 -1
BITMAP
70
88
08
08
30
20
20
00
00
20
ENDCHAR
STARTCHAR <unknown>
ENCODING 64
SWIDTH 42 0
DWIDTH 8 0
BBX 5 9 0 0
BITMAP
30
48
98
A8
A8
B8
80
48
30
ENDCHAR
STARTCHAR <unknown>
ENCODING 65
SWIDTH 42 0
DWIDTH 8 0
BBX 5 9 0 0
BITMAP
20
50
88
88
88
F8
88
88
88
ENDCHAR
STARTCHAR <unknown>
ENCODING 66
SWIDTH 42 0
DWIDTH 8 0
BBX 5 9 0 0
BITMAP
E0
90
88
90
E0
90
88
90
E0
ENDCHAR
STARTCHAR <unknown>
ENCODING 67
SWIDTH 42 0
DWIDTH 8 0
BBX 5 9 0 0
BITMAP
20
50
88
80
80
80
88
50
20
ENDCHAR
STARTCHAR <unknown>
ENCODING 68
SWIDTH 42 0
DWIDTH 8 0
BBX 5 9 0 0
BITMAP
E0
90
88
88
88
88
88
90
E0
ENDCHAR
STARTCHAR <unknown>
ENCODING 69
SWIDTH 42 0
DWIDTH 8 0
BBX 5 9 0 0
BITMAP
F8
80
80
80
E0
80
80
80
F8
ENDCHAR
STARTCHAR <unknown>
ENCODING 70
SWIDTH 42 0
DWIDTH 8 0
BBX 5 9 0 0
BITMAP
F8
80
80
80
E0
80
80
80
80
ENDCHAR
STARTCHAR <unknown>
ENCODING 71
SWIDTH 42 0
DWIDTH 8 0
BBX 5 9 0 0
BITMAP
20
50
88
80
80
98
88
58
28
ENDCHAR
STARTCHAR <unknown>
ENCODING 72
SWIDTH 42 0
DWIDTH 8 0
BBX 5 9 0 0
BITMAP
88
88
88
88
F8
88
88
88
88
ENDCHAR
STARTCHAR <unknown>
ENCODING 73
SWIDTH 42 0
DWIDTH 8 0
BBX 5 9 0 0
BITMAP
F8
20
20
20
20
20
20
20
F8
ENDCHAR
STARTCHAR <unknown>
ENCODING 74
SWIDTH 42 0
DWIDTH 8 0
BBX 5 9 0 0
BITMAP
38
10
10
10
10
10
90
90
60
ENDCHAR
STARTCHAR <unknown>
ENCODING 75
SWIDTH 42 0
DWIDTH 8 0
BBX 5 9 0 0
BITMAP
88
90
A0
C0
80
C0
A0
90
88
ENDCHAR
STARTCHAR <unknown>
ENCODING 76
SWIDTH 42 0
DWIDTH 8 0
BBX 5 9 0 0
BITMAP
80
80
80
80
80
80
80
88
F8
ENDCHAR
STARTCHAR <unknown>
ENCODING 77
SWIDTH 42 0
DWIDTH 8 0
BBX 5 9 0 0
BITMAP
88
D8
A8
A8
88
88
88
88
88
ENDCHAR
STARTCHAR <unknown>
ENCODING 78
SWIDTH 42 0
DWIDTH 8 0
BBX 5 9 0 0
BITMAP
88
C8
A8
A8
98
88
88
88
88
ENDCHAR
STARTCHAR <unknown>
ENCODING 79
SWIDTH 42 0
DWIDTH 8 0
BBX 5 9 0 0
BITMAP
20
50
88
88
88
88
88
50
20
ENDCHAR
STARTCHAR <unknown>
ENCODING 80
SWIDTH 42 0
DWIDTH 8 0
BBX 5 9 0 0
BITMAP
F0
88
88
88
F0
80
80
80
80
ENDCHAR
STARTCHAR <unknown>
ENCODING 81
SWIDTH 42 0
DWIDTH 8 0
BBX 5 9 0 0
BITMAP
20
50
88
88
88
A8
98
50
28
ENDCHAR
STARTCHAR <unknown>
ENCODING 82
SWIDTH 42 0
DWIDTH 8 0
BBX 5 9 0 0
BITMAP
F0
88
88
88
F0
C0
A0
90
88
ENDCHAR
STARTCHAR <unknown>
ENCODING 83
SWIDTH 42 0
DWIDTH 8 0
BBX 5 9 0 0
BITMAP
30
48
80
80
70
08
08
90
60
ENDCHAR
STARTCHAR <unknown>
ENCODING 84
SWIDTH 42 0
DWIDTH 8 0
BBX 5 9 0 0
BITMAP
F8
A8
20
20
20
20
20
20
20
ENDCHAR
STARTCHAR <unknown>
ENCODING 85
SWIDTH 42 0
DWIDTH 8 0
BBX 5 9 0 0
BITMAP
88
88
88
88
88
88
88
88
70
ENDCHAR
STARTCHAR <unknown>
ENCODING 86
SWIDTH 42 0
DWIDTH 8 0
BBX 5 9 0 0
BITMAP
88
88
88
88
88
88
88
50
20
ENDCHAR
STARTCHAR <unknown>
ENCODING 87
SWIDTH 42 0
DWIDTH 8 0
BBX 5 9 0 0
BITMAP
88
88
88
88
88
A8
A8
A8
50
ENDCHAR
STARTCHAR <unknown>
ENCODING 88
SWIDTH 42 0
DWIDTH 8 0
BBX 5 9 0 0
BITMAP
88
88
50
20
20
20
50
88
88
ENDCHAR
STARTCHAR <unknown>
ENCODING 89
SWIDTH 42 0
DWIDTH 8 0
BBX 5 9 0 0
BITMAP
88
88
88
88
50
20
20
20
20
ENDCHAR
STARTCHAR <unknown>
ENCODING 90
SWIDTH 42 0
DWIDTH 8 0
BBX 5 9 0 0
BITMAP
F8
88
10
10
20
40
40
88
F8
ENDCHAR
STARTCHAR <unknown>
ENCODING 91
SWIDTH 42 0
DWIDTH 8 0
BBX 5 9 0 0
BITMAP
F8
C0
C0
C0
C0
C0
C0
C0
F8
ENDCHAR
STARTCHAR <unknown>
ENCODING 92
SWIDTH 42 0
DWIDTH 8 0
BBX 5 7 0 1
BITMAP
80
40
40
20
10
10
08
ENDCHAR
STARTCHAR <unknown>
ENCODING 93
SWIDTH 42 0
DWIDTH 8 0
BBX 5 9 0 0
BITMAP
F8
18
18
18
18
18
18
18
F8
ENDCHAR
STARTCHAR <unknown>
ENCODING 94
SWIDTH 42 0
DWIDTH 8 0
BBX 5 3 0 6
BITMAP
20
50
88
ENDCHAR
STARTCHAR <unknown>
ENCODING 95
SWIDTH 42 0
DWIDTH 8 0
BBX 8 1 0 -2
BITMAP
FF
ENDCHAR
STARTCHAR <unknown>
ENCODING 96
SWIDTH 42 0
DWIDTH 8 0
BBX 3 4 1 5
BITMAP
80
80
40
20
ENDCHAR
STARTCHAR <unknown>
ENCODING 97
SWIDTH 42 0
DWIDTH 8 0
BBX 5 6 0 0
BITMAP
F0
08
78
88
88
78
ENDCHAR
STARTCHAR <unknown>
ENCODING 98
SWIDTH 42 0
DWIDTH 8 0
BBX 5 9 0 0
BITMAP
80
80
80
B0
C8
88
88
C8
B0
ENDCHAR
STARTCHAR <unknown>
ENCODING 99
SWIDTH 42 0
DWIDTH 8 0
BBX 5 6 0 0
BITMAP
70
80
80
80
88
70
ENDCHAR
STARTCHAR <unknown>
ENCODING 100
SWIDTH 42 0
DWIDTH 8 0
BBX 5 9 0 0
BITMAP
08
08
08
68
98
88
88
98
68
ENDCHAR
STARTCHAR <unknown>
ENCODING 101
SWIDTH 42 0
DWIDTH 8 0
BBX 5 6 0 0
BITMAP
70
88
F8
80
88
70
ENDCHAR
STARTCHAR <unknown>
ENCODING 102
SWIDTH 42 0
DWIDTH 8 0
BBX 5 9 0 0
BITMAP
30
48
40
40
E0
40
40
40
E0
ENDCHAR
STARTCHAR <unknown>
ENCODING 103
SWIDTH 42 0
DWIDTH 8 0
BBX 5 9 0 -3
BITMAP
68
98
88
88
98
68
08
88
70
ENDCHAR
STARTCHAR <unknown>
ENCODING 104
SWIDTH 42 0
DWIDTH 8 0
BBX 5 9 0 0
BITMAP
80
80
80
B0
C8
88
88
88
88
ENDCHAR
STARTCHAR <unknown>
ENCODING 105
SWIDTH 42 0
DWIDTH 8 0
BBX 3 8 1 0
BITMAP
40
00
C0
40
40
40
40
E0
ENDCHAR
STARTCHAR <unknown>
ENCODING 106
SWIDTH 42 0
DWIDTH 8 0
BBX 5 9 0 -3
BITMAP
18
08
08
08
08
08
08
88
70
ENDCHAR
STARTCHAR <unknown>
ENCODING 107
SWIDTH 42 0
DWIDTH 8 0
BBX 5 9 0 0
BITMAP
80
80
80
98
A0
C0
C0
A0
98
ENDCHAR
STARTCHAR <unknown>
ENCODING 108
SWIDTH 42 0
DWIDTH 8 0
BBX 3 9 1 0
BITMAP
C0
40
40
40
40
40
40
40
20
ENDCHAR
STARTCHAR <unknown>
ENCODING 109
SWIDTH 42 0
DWIDTH 8 0
BBX 5 6 0 0
BITMAP
F8
A8
A8
A8
A8
A8
ENDCHAR
STARTCHAR <unknown>
ENCODING 110
SWIDTH 42 0
DWIDTH 8 0
BBX 5 6 0 0
BITMAP
B0
C8
88
88
88
88
ENDCHAR
STARTCHAR <unknown>
ENCODING 111
SWIDTH 42 0
DWIDTH 8 0
BBX 5 6 0 0
BITMAP
70
88
88
88
88
70
ENDCHAR
STARTCHAR <unknown>
ENCODING 112
SWIDTH 42 0
DWIDTH 8 0
BBX 5 9 0 -3
BITMAP
B0
C8
88
88
C8
B0
80
80
80
ENDCHAR
STARTCHAR <unknown>
ENCODING 113
SWIDTH 42 0
DWIDTH 8 0
BBX 5 9 0 -3
BITMAP
68
98
88
88
98
68
08
08
08
ENDCHAR
STARTCHAR <unknown>
ENCODING 114
SWIDTH 42 0
DWIDTH 8 0
BBX 5 6 0 0
BITMAP
B0
C8
80
80
80
80
ENDCHAR
STARTCHAR <unknown>
ENCODING 115
SWIDTH 42 0
DWIDTH 8 0
BBX 5 6 0 0
BITMAP
70
80
70
08
88
70
ENDCHAR
STARTCHAR <unknown>
ENCODING 116
SWIDTH 42 0
DWIDTH 8 0
BBX 5 9 0 0
BITMAP
40
40
40
E0
40
40
40
48
30
ENDCHAR
STARTCHAR <unknown>
ENCODING 117
SWIDTH 42 0
DWIDTH 8 0
BBX 5 6 0 0
BITMAP
90
90
90
90
90
68
ENDCHAR
STARTCHAR <unknown>
ENCODING 118
SWIDTH 42 0
DWIDTH 8 0
BBX 5 6 0 0
BITMAP
88
88
88
88
50
20
ENDCHAR
STARTCHAR <unknown>
ENCODING 119
SWIDTH 42 0
DWIDTH 8 0
BBX 5 6 0 0
BITMAP
88
88
88
A8
A8
50
ENDCHAR
STARTCHAR <unknown>
ENCODING 120
SWIDTH 42 0
DWIDTH 8 0
BBX 5 6 0 0
BITMAP
88
50
20
20
50
88
ENDCHAR
STARTCHAR <unknown>
ENCODING 121
SWIDTH 42 0
DWIDTH 8 0
BBX 5 9 0 -3
BITMAP
88
88
88
88
98
68
08
88
70
ENDCHAR
STARTCHAR <unknown>
ENCODING 122
SWIDTH 42 0
DWIDTH 8 0
BBX 5 6 0 0
BITMAP
F8
90
20
20
48
F8
ENDCHAR
STARTCHAR <unknown>
ENCODING 123
SWIDTH 42 0
DWIDTH 8 0
BBX 3 9 1 0
BITMAP
20
40
40
40
80
40
40
40
20
ENDCHAR
STARTCHAR <unknown>
ENCODING 124
SWIDTH 42 0
DWIDTH 8 0
BBX 1 12 2 -3
BITMAP
80
80
80
80
80
80
80
80
80
80
80
80
ENDCHAR
STARTCHAR <unknown>
ENCODING 125
SWIDTH 42 0
DWIDTH 8 0
BBX 3 9 1 0
BITMAP
80
40
40
40
20
40
40
40
80
ENDCHAR
STARTCHAR <unknown>
ENCODING 126
SWIDTH 42 0
DWIDTH 8 0
BBX 5 3 0 6
BITMAP
40
A8
10
ENDCHAR
STARTCHAR <unknown>
ENCODING 127
SWIDTH 42 0
DWIDTH 8 0
BBX 8 12 0 -3
BITMAP
AA
55
AA
55
AA
55
AA
55
AA
55
AA
55
ENDCHAR
ENDFONT
